<?xml version="1.0" encoding="utf-8"?>
<!-- Generator: Adobe Illustrator 19.1.0, SVG Export Plug-In . SVG Version: 6.00 Build 0)  -->
<svg version="1.1"
	 id="svg4977" xmlns:dc="http://purl.org/dc/elements/1.1/" xmlns:cc="http://creativecommons.org/ns#" xmlns:rdf="http://www.w3.org/1999/02/22-rdf-syntax-ns#" xmlns:svg="http://www.w3.org/2000/svg" xmlns:sodipodi="http://sodipodi.sourceforge.net/DTD/sodipodi-0.dtd" xmlns:inkscape="http://www.inkscape.org/namespaces/inkscape" inkscape:version="0.91 r13725" sodipodi:docname="2b.svg"
	 xmlns="http://www.w3.org/2000/svg" xmlns:xlink="http://www.w3.org/1999/xlink" x="0px" y="0px" viewBox="0 0 600 600"
	 style="enable-background:new 0 0 600 600;" xml:space="preserve">
<style type="text/css">
	.st0{fill:#CCCCCC;}
	.st1{fill:#A57AB5;}
	.st2{display:none;fill:#A57AB5;}
</style>
<sodipodi:namedview  id="namedview12" bordercolor="#666666" borderopacity="1" objecttolerance="10" inkscape:cy="300" inkscape:cx="300" inkscape:zoom="0.39333333" showgrid="false" guidetolerance="10" gridtolerance="10" pagecolor="#ffffff" inkscape:current-layer="svg4977" inkscape:pageshadow="2" inkscape:pageopacity="0" inkscape:window-maximized="0" inkscape:window-y="0" inkscape:window-width="732" inkscape:window-height="480" inkscape:window-x="0">
	</sodipodi:namedview>
<circle id="circle5" class="st0" cx="300" cy="300" r="300"/>
<path id="path6" inkscape:connector-curvature="0" d="M147.4,272.9h60.2c24,0,31.1-1.5,39.3-28.1l20.4-0.5L249,307.6H103.5
	l-0.5-17.4C212.2,183.6,214.3,167.8,215.3,152c2.6-34.7-22.5-45.9-35.7-45.9c-13.3,0-35.2,8.7-56.6,52.6l-18.9-8.2
	c28.6-80.1,76.5-76.5,91.9-76c37.8,1,62.3,36.7,61.2,66.9C256.1,182.1,238.3,188.2,147.4,272.9z"/>
<g id="layer1" transform="translate(-484.86267,155.35853)">
	<path id="path289" inkscape:connector-curvature="0" class="st1" d="M997-67.5c54.3,54.3,87.9,129.3,87.9,212.2
		c0,165.7-134.3,300-300,300c-82.8,0-157.8-33.6-212.1-87.9"/>
	<path id="path295" inkscape:connector-curvature="0" class="st2" d="M1022.6,240.6c0,16.2-5.9,27.3-17.7,33.2
		c-3.4,1.7-14.2,4.1-32.4,7c-11.8,2-17.7,6.5-17.7,13.6v29.8c0,1.3,0.4,5.1,1.1,11.4l1.1,11.8c0,3.7-0.9,9.7-2.6,18
		c-4.7,1-10.1,2.1-16.2,3.3c-2-7.4-2.9-12.4-2.9-15.1c0-1.2,0.3-3.1,0.9-5.5c0.6-2.4,0.9-4.3,0.9-5.5c0-1.7-1.5-6.5-4.6-14.4h-5.7
		c-0.8,1.2-1,2.8-0.8,4.8c1,4.2,1.3,7.7,1.1,10.7c-4.2,2.9-9.9,6.9-17.3,11.8c-1.7-0.5-2.3-0.7-1.8-0.7v-26.2
		c-0.5-1.2-1.7-1.7-3.7-1.5h-4.4l-4.4,34.6c-3.4,0.2-7.6,0.2-12.5,0c-1.7-8.1-4.8-20.1-9.2-36.1h-3c-2.7,8.6-4.2,13.3-4.4,14
		c0,1,0.3,2.9,0.9,5.7c0.6,2.8,0.9,4.7,0.9,5.7c0,0.7-0.3,2.6-0.7,5.5l-1.1,8.9c-0.5,0.5-1.1,0.7-1.8,0.7c-7.4,0-12.3-1.8-14.7-5.5
		c-2.5-3.7-3.5-8.9-3-15.5l3-44.2c0-0.7,0.2-1.7,0.7-3c0.5-1.2,0.7-2.1,0.7-2.6c0-2-2.1-5.9-6.3-11.8c-0.7-0.2-4.5-1.1-11.4-2.6
		c-4.2-1-12.4-2.7-24.7-5.1c-17-3.2-25.4-16.8-25.4-40.9c0-35.9,14.7-65.7,44.2-89.5c1.2,6.6,3.3,15.5,6.3,26.5
		c2.2,0.5,7,1.6,14.4,3.3c1.5,0.5,9,3.2,22.5,8.1c-6.9-4.2-15.8-10.9-26.9-20.3c-4.2-4.9-6.3-13.1-6.3-24.7c0-2.7,4.7-5.9,14-9.6
		c8.3-3.4,14.6-5.4,18.8-5.9c13.3-1.7,23.4-2.6,30.6-2.6c30.7,0,55.5,7.9,74.4,23.6c-6.1,7.1-16.7,14.7-31.7,22.8
		c5.9,0.2,14.5-2.1,25.8-7c11.3-4.9,16.1-7.4,14.4-7.4c2,0,5.9,3.9,11.8,11.8c4.4,5.9,8,11.2,10.7,15.8c7.9,14,13.1,29.1,15.8,45.3
		c0,5.7,0.1,9.7,0.4,12.2L1022.6,240.6L1022.6,240.6L1022.6,240.6z M881.5,247.2c0-10.6-4.6-20.6-13.8-30
		c-9.2-9.5-19.1-14.2-29.7-14.2c-9.3,0-17.5,4-24.7,11.9c-7.1,7.9-10.7,16.7-10.7,26.3c0,8.4,4,13.9,12.2,16.3
		c5.2,1.5,12.4,2.4,21.7,2.6h20.3C873.3,260.3,881.5,256,881.5,247.2L881.5,247.2z M921.6,292.9v-11.4c-1.7-3.2-3.4-6.5-5.1-10
		c-1.5-4.9-4.2-11.8-8.1-20.6l-4.1,43.1c0,3.5-0.7,5.2-2.2,5.2c-1,0-1.7-0.2-2.2-0.7c-1.7-26-2.6-37.3-2.6-33.9v-12.9
		c-0.5-0.8-1.1-1.1-1.8-1.1c-8.3,8.6-12.5,22.5-12.5,41.6c0,10.6,1,17.1,2.9,19.5c2-0.5,4.2-1.4,6.6-2.6c1-0.5,3.8-0.7,8.5-0.7
		c4.7,0,10.3,1.5,16.9,4.4C920.4,312.8,921.6,306.2,921.6,292.9L921.6,292.9z M1004.9,241.6c0-9.9-3.7-18.7-11.1-26.5
		c-7.4-7.8-15.8-11.7-25.4-11.7c-10.3,0-20,4.7-28.9,14.2c-9,9.5-13.5,19.3-13.5,29.7c0,8.6,4.2,12.9,12.5,12.9h42.4
		C996.9,259.9,1004.9,253.7,1004.9,241.6L1004.9,241.6z"/>
	<path d="M976.5,246.5c-6.9,23.5-26.8,41.5-64.1,45.9c7.6,7.6,16.8,10.1,26.4,10.8c21.9,1.6,40.8-6.8,56.8-20.6
		c9-7.8,15.3-18.6,22.8-28c1.2-1.5,2.3-3,3.7-4.8c4,14.1-19.6,50.6-40.8,66.1c-29.2,21.3-77.3,26-122.6-14.2
		c2.6,7.3,5.2,14.5,7.9,22c-20.4-2.9-46.3-45.6-38-81.9c20,20.6,43.8,31.4,72.2,32.3C929.1,274.8,953.8,266,976.5,246.5z"/>
	<path d="M981,222c-29.7-33.7-95.1-49.6-146.5-6.9c2.3-16.7,21.2-38.8,63.1-44.8c-15.4-11.5-31.6-13.2-48.5-8.1
		c-25.7,7.6-45.8,22.4-57.9,47c-0.7,1.4-2.2,2.4-4.2,2.9c6.8-31.1,23.3-56.3,51.6-70.4c41-20.5,78.1-8.8,112.4,20
		c-2.5-7.2-5.1-14.5-7.7-21.8C961.9,141.4,990.4,183.9,981,222z"/>
	<path d="M924.6,231.6c-0.1,10.7-9.6,20.3-20,20.3c-9.7,0-20.4-10.9-20.2-20.5c0.2-10,10.6-19.6,20.9-19.5
		C915.5,211.9,924.7,221.4,924.6,231.6z"/>
</g>
</svg>
