<?xml version="1.0" encoding="utf-8"?>
<!-- Generator: Adobe Illustrator 19.1.0, SVG Export Plug-In . SVG Version: 6.00 Build 0)  -->
<svg version="1.1" id="Layer_1" xmlns="http://www.w3.org/2000/svg" xmlns:xlink="http://www.w3.org/1999/xlink" x="0px" y="0px"
	 viewBox="0 0 600 600" style="enable-background:new 0 0 600 600;" xml:space="preserve">
<style type="text/css">
	.st0{fill:#A57AB5;}
	.st1{fill:#18121A;}
</style>
<circle id="Background" class="st0" cx="298" cy="300" r="300"/>
<path id="Phyrexian_Mana" class="st1" d="M465.4,299.6c0.3-32.1-9.8-64.4-29.8-89.6c-9.6-10.6-17.6-22.7-27.8-32.8
	c-22.5-22.4-56.2-23.8-83.4-37.9c-1.6-14.1-6.7-28.3-3.6-42.6c1-4.7,2.4-9.6-0.2-14.1c-7.1-16.4-1-34.2-2.3-51.3
	c-0.9-8.9-0.3-19.8-8.8-25.3c-2,18.6-8.8,35.9-14.4,53.5c-2.6,13.7-2.6,28.1-8.5,41c3.8,13.1-3.7,24.2-11.7,33.9
	c-17.8,9.1-39,11.3-54.5,24.7c-11,9.4-23,17.6-35.3,25.2c-9.3,11.6-19.5,22.8-23.7,37.4c-16.6,20-18.5,46.9-27.9,70.3
	c-0.2,34.8,6.9,72.3,29.1,100.2c15.9,13.1,27,30.8,42.9,43.9c15.2,9.1,31.5,16.6,47.2,24.8c10.3,2.4,20.9,3.6,31.1,6.4
	c8.3,42.7,13.9,86.4,30.6,126.8c5.5-16.6,4.8-34.4,9.6-51.2c6.7-24.8-7.1-50.6,0.7-75c11.6-10.4,31-3.6,43.9-12.6
	c24.6-15.1,50.5-29.9,68.3-53c6.6-13.3,20.6-23.3,20.6-39.2C457.6,341.6,470.2,321.4,465.4,299.6 M283.2,431.3
	c-17.8-4.3-34.4-12.8-49.3-23.2c-16.1-10.7-22-30.7-37.9-41.6c-14.8-17.7-11.6-41.9-17.7-62.9c2.4-14.6,5.3-29.1,6.8-43.9
	c7.2-11.7,18.4-21.1,21.5-35.2c10.6-15.2,26.7-25.7,39.7-38.9c9.4-10.9,24.4-6.3,36.8-6.7c-1.2,12-2.2,24.4,0.8,36.3
	c1.5,7.3,4.7,14.4,3.6,22.1c-2.5,16.2,3.6,32.4-0.7,48.4c-8.7,33.5,0.8,67.3,1.6,101c-1.2,14.9-1.9,30-5.3,44.7 M418,368
	c-11.8,8.4-21.8,18.7-32.1,28.7c-17.9,12.4-35.5,25.4-56.8,31.6c1.9-15.2,3.8-30.8-1-45.6c-11.9-33.6,2.7-68.7,5.1-102.6
	c-2.2-20.2-0.1-41.7-9.3-60.3c-1.2-14,4.8-27.4,8.9-40.6c14.1,5.6,27.3,13.2,39,22.9c14.1,10.6,35.8,17.4,38.9,37.2
	c1.6,13,15.8,20.8,15.4,34.1c-0.9,31.5,3.5,64.5-8,94.6"/>
</svg>
