<?xml version="1.0" encoding="utf-8"?>
<!-- Generator: Adobe Illustrator 19.1.0, SVG Export Plug-In . SVG Version: 6.00 Build 0)  -->
<svg version="1.1" id="Purple" xmlns="http://www.w3.org/2000/svg" xmlns:xlink="http://www.w3.org/1999/xlink" x="0px" y="0px"
	 viewBox="0 0 600 600" style="enable-background:new 0 0 600 600;" xml:space="preserve">
<style type="text/css">
	.st0{fill:#A67AB6;}
	.st1{fill:#18131A;}
</style>
<circle id="Background" class="st0" cx="300" cy="300" r="300"/>
<g id="Symbol">
	<path class="st1" d="M478.3,333.9c-17.2,58.8-67,103.6-160.3,114.9c19.1,18.9,41.9,25.3,66.1,27c54.8,3.9,102-17.1,141.9-51.6
		c22.4-19.4,38.2-46.5,57-70.1c2.9-3.7,5.8-7.5,9.4-12.1c10.1,35.3-48.9,126.4-102,165.2c-72.9,53.3-193.2,64.9-306.6-35.4
		c6.5,18.2,13,36.3,19.6,54.9c-50.9-7.4-115.9-113.9-94.9-204.8c50.1,51.4,109.6,78.5,180.5,80.6
		C359.7,404.7,421.4,382.8,478.3,333.9z"/>
	<path class="st1" d="M489.4,272.6c-74.4-84.1-237.7-124-366.3-17.4c5.7-41.6,53.1-97,157.7-112c-38.4-28.8-78.9-32.9-121.3-20.4
		c-64.2,19-114.5,56-144.7,117.4c-1.7,3.5-5.5,6-10.5,7.3c17-77.6,58.3-140.7,129-176c102.6-51.2,195.2-21.9,281,50.1
		c-6.4-18.1-12.7-36.2-19.2-54.5C441.8,71.2,512.9,177.5,489.4,272.6z"/>
	<path class="st1" d="M348.5,296.6c-0.3,26.7-24,50.8-49.9,50.8c-24.4,0-51.1-27.2-50.5-51.3c0.6-25,26.4-49.1,52.2-48.8
		C325.7,247.5,348.7,271.1,348.5,296.6z"/>
</g>
</svg>
