<?xml version="1.0" encoding="utf-8"?>
<!-- Generator: Adobe Illustrator 19.1.0, SVG Export Plug-In . SVG Version: 6.00 Build 0)  -->
<svg version="1.1" xmlns="http://www.w3.org/2000/svg" xmlns:xlink="http://www.w3.org/1999/xlink" x="0px" y="0px"
	 viewBox="0 0 600 600" style="enable-background:new 0 0 600 600;" xml:space="preserve">
<style type="text/css">
	.st0{fill:#F9AA8F;}
	.st1{fill:#F8F6D8;}
	.st2{fill:#211D15;}
	.st3{fill:#200000;}
	.st4{fill:#A57AB5;}
	.st5{fill:#18121A;}
</style>
<g id="Layer_1">
	<circle class="st0" cx="300" cy="300" r="300"/>
	<g transform="translate(-127.72,-90.36)">
		<path class="st1" d="M639.8,178.2c54.3,54.3,87.9,129.3,87.9,212.2c0,165.7-134.3,300-300,300c-82.8,0-157.8-33.6-212.1-87.9"/>
		<path class="st2" d="M655.7,529c-14.6-13.6-24.3-20.9-29.1-22.1c-3.5-0.8-6.8,1.2-10,6c-3.2,4.8-7.7,6.6-13.6,5.1
			c-2.4-0.6-7-2.6-14-6.1c-5.6,5.3-8.6,8.8-9.1,10.5c-0.6,2.4,0.5,5.6,3.3,9.7c2.8,4.1,5.4,6.4,7.8,7c1.5,0.4,3.7,0.5,6.5,0.5
			s4.7,0.1,5.6,0.3c2.7,0.6,2.8,5.8,0.5,15.6c-2.2,9.3-7.8,23.1-16.8,41.4c-0.4-23.5-3.7-35.9-9.9-37.4c-0.9-0.2-2.8,0-5.8,0.7
			c-3,0.6-5.2,0.8-6.5,0.5c-6.3-1.5-10.5-8.6-12.8-21.3c-10.3-0.9-16.5,3-18.6,11.7c-1,4.4,0.1,8.3,3.5,11.9c3.4,3.6,4.9,5.9,4.7,7
			c-1.4,5.9-12.1,12.8-32.1,20.8c-10.7,4.3-18,7.4-22.1,9.1c4-3.2,8.2-7.5,12.8-13.1c5.2-6.3,8.2-11.4,9.2-15.4
			c0.5-2.2-1.3-5.8-5.3-10.9c-4.1-5.1-5.6-9.8-4.5-14.1c0.9-3.7,3.3-7.9,7.2-12.7c-2-3.9-5-6.4-8.9-7.3c-8.7-2.1-13.7-0.3-15,5.3
			c0.9-3.9,0.2-1-2.1,8.8c-1.5,7.2-7.8,9.5-18.8,6.8c-8.5-2-22.2-7.4-41.2-16c23.9-0.2,36.7-4,38.5-11.4c-0.2,0.9,0-1.8,0.6-8.1
			c0.7-6.9,7-11.9,18.6-14.8c0.4-10.4-3.6-16.7-12-18.7c-1.3-0.3-4.2,1.4-8.8,5.1c-4.6,3.7-8.4,5.2-11.4,4.5
			c-5.2-1.2-10.6-8.5-16.1-21.7c-2.6-6.6-6.5-16.3-11.9-29.3c4.4,3.8,8.7,7.6,13.1,11.4c5.8,4.6,10.6,7.4,14.5,8.3
			c3,0.7,6.6-1.2,10.8-5.8c4.2-4.6,8.7-6.3,13.4-5.2c0.7,0.2,4.7,2.5,12.1,7c5.6-5.3,8.8-9.5,9.5-12.5c0.6-2.6-0.2-6-2.6-10.1
			c-2.3-4.1-4.8-6.5-7.4-7.1c-1.1-0.3-2.8-0.3-5.3-0.2c-2.4,0.1-4.2,0-5.3-0.2c-3.9-0.9-4.7-6.3-2.4-16c0.6-2.6,6.7-16.9,18.1-42.7
			c-1,3.2-1,9.6-0.1,19.2c1.1,11.7,4.1,18.2,9.1,19.4c0.9,0.2,2.8,0,5.7-0.7c2.9-0.7,5.1-0.8,6.6-0.5c5,1.2,8.4,5,10.3,11.4l2.8,9.9
			c4.5,1.1,8.7,0.4,12.5-2.1s6.3-6.1,7.4-10.6c1.1-4.8,0-8.9-3.4-12.3c-3.4-3.5-5-5.8-4.6-7.1c1.1-4.5,10.1-10.5,27-17.9
			c13.6-5.9,22.3-9.2,26.1-9.9c-12.3,10.4-19.2,18.4-20.6,24.3c-0.7,3,0.3,6.7,3.2,11.1c3.6,5.2,5.5,8.8,5.7,10.6
			c1,5.5-0.9,12.3-5.5,20.3c4.9,5.5,8.8,8.6,11.9,9.4c6.3,1.5,10.2-1,11.7-7.5c0.2-0.7,0.4-2.8,0.7-6.4s0.6-5.6,0.9-6
			c1.6-2.8,7.9-2.9,19-0.3c6.9,1.7,20.9,7.1,41.8,16.2c-5.1,0.2-12.7,0.4-22.9,0.7c-9.3,0.5-14.3,2.4-15.1,5.7
			c-0.4,1.5-0.4,4.2-0.2,8.2c0.2,3.9,0.1,6.8-0.3,8.5c-0.7,3-3.4,5.4-7.9,7.1l-12.9,5.2c1.5,5.4,2.5,8.6,3.2,9.7
			c1.6,3.1,4.2,5.1,7.8,6c2.6,0.6,5.5-1.1,8.8-5.1s7.3-5.5,12-4.3c5.9,1.4,11.2,8.4,15.9,21c2.7,7.1,6.9,17.8,12.6,32.2
			 M588.2,493.1c3.3-13.9,1.1-27.1-6.6-39.7c-7.8-12.6-18.6-20.6-32.4-23.9c-14.1-3.4-27.4-1.2-40,6.4
			c-12.6,7.6-20.7,18.5-24.3,32.5c-3.5,13.8-1.3,27,6.8,39.6c8.1,12.6,19.1,20.6,33,23.9c14.7,3.5,28.2,1.6,40.4-5.6
			c12.2-7.3,19.9-18.3,23.2-33.1 M583.4,492c-3.2,13.2-10.2,23.1-21.2,29.6s-23.1,8.2-36.3,5.1c-12.8-3.1-22.7-10.1-29.6-21.2
			c-7-11.1-8.9-23-5.9-35.8c3-12.6,10.2-22.3,21.6-29c11.4-6.8,23.3-8.7,35.9-5.7c12.6,3,22.4,10.2,29.4,21.5S586.4,479.7,583.4,492
			"/>
		<path id="XMLID_1_" class="st3" d="M439.3,318.8c-10.3,24.6-30.8,36.9-61.4,36.9c-5.6,0-11.7,0.7-18.3,2.1
			c-9.8,2.1-14.7,5.1-14.7,8.8c0,1.2,0.8,2.5,2.5,4c1.6,1.5,3,2.3,4.2,2.3c-5.9,0-1.9,0.2,11.9,0.5c13.8,0.4,22.5,0.5,26,0.5
			c-20.4,11.9-54.4,17.4-102.2,16.5c-15.7-0.2-29.1-7.1-40.4-20.7c-11-12.9-16.5-27.3-16.5-43.2c0-16.9,5.7-31.2,17-43
			c11.3-11.8,25.5-17.7,42.3-17.7c3.7,0,8.7,0.8,14.9,2.4c6.2,1.6,10.4,2.5,12.5,2.5c8.7,0,19.4-3.6,32.3-10.7s19-10.7,18.3-10.7
			c-2.3,24.6-10.5,41.1-24.6,49.5C333,304.7,328,310.4,328,316c0,3.5,2.1,6.3,6.3,8.4c3.3,1.6,6.9,2.4,10.9,2.4
			c6.1,0,12.1-3.7,17.9-11.2s8.4-14.3,7.7-20.4c-0.7-7-0.2-15.5,1.4-25.3c0.5-2.8,2.2-6.3,5.1-10.4s5.6-6.6,7.9-7.6
			c0,2.1-0.8,5.6-2.3,10.5s-2.3,8.6-2.3,10.9c0,5.2,1.4,9.1,4.2,11.9c4.2-1.6,8-6.9,11.2-15.8c2.8-6.8,4.4-13.3,4.9-19.7
			c-9.8-0.4-19.3-4.9-28.3-13.3c-9-8.4-13.5-17.6-13.5-27.4c0-1.6,0.2-3.3,0.7-4.9c1.4,2.1,3.5,5.4,6.3,9.8c4,5.8,7,8.8,9.1,8.8
			c2.8,0,4.2-2.9,4.2-8.8c0-7.5-2-14.3-6-20.4c-4.5-7.3-10.2-10.9-17.2-10.9c-3.3,0-8.2,1.8-14.7,5.3c-6.6,3.5-12.5,5.3-17.9,5.3
			c-1.6,0-8.9-2.1-21.8-6.3c22.7-3.7,34.1-7.1,34.1-10.2c0-8-15.6-13.3-46.7-16.1c-3-0.2-8.7-0.7-16.8-1.4c0.9-1.2,7.6-2.4,20-3.9
			c10.5-1.2,17.9-1.8,22.1-1.8c55.7,0,91.1,27.1,106,81.1c2.6-2.1,3.9-5.7,3.9-10.7c0-6.4-1.9-14.5-5.6-24.2
			c-1.4-3.8-3.6-9.5-6.7-17.1c19.2,24.5,28.8,47.6,28.8,69.5c0,11.5-2.7,22-8.1,31.4c-3.5,6.4-10.1,14.5-19.7,24.4
			s-16.1,17.5-19.7,22.9c12.9-3.5,21.3-6.2,25.3-8.1c8.9-4,17-10,24.2-17.9c0,3.1-1.3,7.6-3.9,13.7 M285.9,180.5
			c0,4.2-2.3,6.9-7,8.1l-9.1,1.4c-3.3,1.6-8.1,8.1-14.4,19.3c-0.7-3.5-1.8-8.4-3.2-14.7c-2.1,0.2-5.6,2.1-10.5,5.6
			c-2.1,1.6-5.5,4.1-10.2,7.4c1.4-8.4,6.1-17,14.1-25.6c8.4-9.6,16.6-14.4,24.6-14.4c10.5,0,15.8,4.3,15.8,13 M347.1,212.9
			c0,4-2.2,7.3-6.5,10s-8.6,4-12.8,4c-5.6,0-10.7-3.1-15.1-9.5c-5.4-7.7-10.9-12.7-16.5-15.1c1.2-1.2,2.6-1.8,4.2-1.8
			c2.1,0,5.7,1.6,10.7,4.9c5,3.3,8.2,4.9,9.7,4.9c1.2,0,3.1-1.6,5.8-4.9c2.7-3.3,5.7-4.9,9-4.9c7.7,0,11.6,4.1,11.6,12.3"/>
	</g>
</g>
<g id="svg4977">
	<path id="path289" inkscape:connector-curvature="0" class="st4" d="M512.1,87.8C566.4,142.2,600,217.2,600,300
		c0,165.7-134.3,300-300,300c-82.8,0-157.8-33.6-212.1-87.9"/>
	<path class="st5" d="M491.4,402.2c-6.9,23.5-26.8,41.5-64.1,45.9c7.6,7.6,16.8,10.1,26.4,10.8c21.9,1.6,40.8-6.8,56.8-20.6
		c9-7.8,15.3-18.6,22.8-28c1.2-1.5,2.3-3,3.7-4.8c4,14.1-19.6,50.6-40.8,66.1c-29.2,21.3-77.3,26-122.6-14.2
		c2.6,7.3,5.2,14.5,7.9,22c-20.4-2.9-46.3-45.6-38-81.9c20,20.6,43.8,31.4,72.2,32.3C444,430.5,468.7,421.7,491.4,402.2z"/>
	<path class="st5" d="M495.9,377.6c-29.7-33.7-95.1-49.6-146.5-6.9c2.3-16.7,21.2-38.8,63.1-44.8c-15.4-11.5-31.6-13.2-48.5-8.1
		c-25.7,7.6-45.8,22.4-57.9,47c-0.7,1.4-2.2,2.4-4.2,2.9c6.8-31.1,23.3-56.3,51.6-70.4c41-20.5,78.1-8.8,112.4,20
		c-2.5-7.2-5.1-14.5-7.7-21.8C476.8,297.1,505.3,339.6,495.9,377.6z"/>
	<path class="st5" d="M439.5,387.2c-0.1,10.7-9.6,20.3-20,20.3c-9.7,0-20.4-10.9-20.2-20.5c0.2-10,10.6-19.6,20.9-19.5
		C430.4,367.6,439.6,377,439.5,387.2z"/>
</g>
</svg>
